<svg xmlns="http://www.w3.org/2000/svg" fill="none" viewBox="0 0 96 96" id="Bnb--Streamline-Cryptocurrency" height="96" width="96">
  <desc>
    Bnb Streamline Icon: https://streamlinehq.com
  </desc>
  <path fill="#f3ba2f" d="M48 96c26.509800000000002 0 48 -21.4902 48 -48 0 -26.509680000000003 -21.4902 -48 -48 -48C21.490319999999997 0 0 21.490319999999997 0 48c0 26.509800000000002 21.490319999999997 48 48 48Z" stroke-width="3"></path>
  <path fill="#ffffff" d="M36.348 43.212 48 31.56l11.658000000000001 11.658000000000001 6.779999999999999 -6.779999999999999L48 18l-18.432000000000002 18.432000000000002 6.779999999999999 6.779999999999999ZM18 48l6.779999999999999 -6.779999999999999L31.56 48l-6.779999999999999 6.779999999999999L18 48Zm18.348 4.788L48 64.44l11.658000000000001 -11.658000000000001 6.779999999999999 6.776999999999999L48 78l-18.432000000000002 -18.432000000000002 -0.009000000000000001 -0.009000000000000001 6.789 -6.771000000000001ZM64.44 48l6.779999999999999 -6.779999999999999L78 48l-6.779999999999999 6.779999999999999L64.44 48Zm-9.564 -0.006h0.006V48L48 54.882000000000005l-6.872999999999999 -6.87 -0.012 -0.012 0.012 -0.009000000000000001 1.203 -1.206 0.585 -0.585L48 41.117999999999995l6.8790000000000004 6.8790000000000004 -0.003 -0.003Z" stroke-width="3"></path>
</svg>